<?xml version="1.0" encoding="UTF-8"?><svg id="Layer_1" xmlns="http://www.w3.org/2000/svg" width="271.6" height="504.7" viewBox="0 0 271.6 504.7"><path d="M50.4,499.1s70.9,0,70.9-142.9V4.5s-17.1,94.3-69.6,94.9c10.5,17.9,52.9,15,52.5-.6-.2-9.1-9.3-10.5-13.4-5.5-7.6,9.1,5.8,22.5,30.7,19.7,0,0,15.2-1.8,23.2-14.9-1.5,7.4-1.7,60.9,60.3,67.6,0,0-27.6,25.7-53.5-2.8,0,0,21.3,46.6,53.5,53.2-31.1,11.3-74.7-7.7-72.8-28.6,.9-10,10.1-13.3,16-7.4,3.5,3.3,9.8,27-12.9,41.6,0,0-19.6,13-43.2,15.3,0,0,20.6-18.4,22.3-53.5,0,0-31.8,47.2-78.1,63.3,0,0,34.4-19.5,48.5-81.4,0,0-15.1,23-43,37.4,0,0,33.2-37.1,38.1-75.5" fill="none" stroke="#231f20" stroke-linecap="round" stroke-linejoin="round" stroke-width="3.5"/><path d="M169.1,229.1s16.1,95.2,97.3,134.7c-21.5,5.7-108.1-30.1-112.8-53.2-2.2-10.8,8.9-18.4,17-9.8,3.2,3.4,11.6,21.6-31.2,52.3,0,0-36,24.5-56.2,24.1,0,0,28.9-26.7,32.4-65.2,0,0-19.7,51.7-91.1,73.6,0,0,42.8-43.8,57.8-100.7,0,0-23.6,36.8-77.9,70.5" fill="none" stroke="#231f20" stroke-linecap="round" stroke-linejoin="round" stroke-width="3.5"/></svg>